<svg viewBox="0 0 20 20" xmlns="http://www.w3.org/2000/svg"><path clip-rule="evenodd" d="m11.0712 15.7144v-2.1431c2.5603 0 4.6431-2.0825 4.6431-4.6428 0-2.56001-2.0828-4.6428-4.6431-4.6428h-2.14279v2.14283c-2.56001 0-4.6428 2.08254-4.6428 4.64277 0 2.56 2.08279 4.6431 4.6428 4.6431zm-11.0712-5.71453c0-5.52281 4.47731-9.99987 9.99987-9.99987 5.52303 0 10.00013 4.47706 10.00013 9.99987 0 5.52283-4.4771 10.00013-10.00013 10.00013-5.52256 0-9.99987-4.4773-9.99987-10.00013zm11.072 1.42853c1.3785 0 2.4999-1.1217 2.4999-2.49993 0-1.37852-1.1214-2.49997-2.4999-2.49997zm-4.64397-.3571c0 1.3785 1.12145 2.4999 2.49997 2.4999v-4.99989c-1.37852 0-2.49997 1.1217-2.49997 2.49999z" fill="#fff" fill-rule="evenodd"/></svg>